#!OML:ASF H:\ManfredETheater\Project 1\Capture day 1\Session 1\subject.ASF
:FULLY-SPECIFIED
:DEGREES
111
root 1.36821 16.0472 -3.71862 -5.95035 3.97646 0.0826514
lowerback 4.35099 -0.591572 -3.5376
upperback 0.327563 -0.928813 1.47281
thorax -2.02227 -0.427368 3.561
lowerneck -19.1873 -1.88488 -2.47659
upperneck 23.2573 -1.97715 0.364426
head 10.69 -1.08106 0.254142
rclavicle -1.13059e-015 -5.96354e-016
rhumerus 25.898 3.80218 -43.4377
rradius 69.3608
rwrist 9.59249
rhand 6.47713 -21.6306
rfingers 7.12502
rthumb 31.7779 -48.8808
lclavicle -1.13059e-015 -5.96354e-016
lhumerus 25.5954 -1.74431 59.7577
lradius 74.671
lwrist -23.4398
lhand 14.3496 16.1826
lfingers 7.12502
lthumb 39.2391 41.6337
rfemur -15.6001 -15.9164 8.03667
rtibia 63.8251
rfoot -33.6459 0.93572
rtoes -12.532
lfemur -17.6695 5.28388 -10.4689
ltibia 63.8136
lfoot -34.7612 -3.36874
ltoes -13.3135
112
root 1.36709 16.0459 -3.71812 -5.94668 3.99058 0.051452
lowerback 4.36759 -0.59215 -3.50711
upperback 0.319532 -0.928505 1.48134
thorax -2.04022 -0.426925 3.55298
lowerneck -19.2185 -1.89339 -2.49584
upperneck 23.2766 -1.98726 0.38315
head 10.7036 -1.08504 0.262258
rclavicle -7.03201e-015 -9.54166e-015
rhumerus 25.8829 3.78895 -43.4371
rradius 69.3625
rwrist 9.58806
rhand 6.47489 -21.6547
rfingers 7.12502
rthumb 31.7757 -48.9054
lclavicle -7.03201e-015 -9.54166e-015
lhumerus 25.6011 -1.7744 59.753
lradius 74.6587
lwrist -23.4337
lhand 14.2575 16.2231
lfingers 7.12502
lthumb 39.1523 41.6993
rfemur -15.604 -15.9258 8.07526
rtibia 63.8387
rfoot -33.6568 0.934002
rtoes -12.5062
lfemur -17.6861 5.26414 -10.431
ltibia 63.8311
lfoot -34.7681 -3.38315
ltoes -13.3181
113
root 1.36651 16.0447 -3.71763 -5.94473 4.00638 0.0333969
lowerback 4.36397 -0.595276 -3.48694
upperback 0.333056 -0.931332 1.48728
thorax -2.02422 -0.429061 3.54769
lowerneck -19.2687 -1.89968 -2.49327
upperneck 23.2746 -1.99347 0.37597
head 10.7124 -1.08838 0.257912
rclavicle -3.21783e-015 0
rhumerus 25.9002 3.76058 -43.4178
rradius 69.3518
rwrist 9.58971
rhand 6.46779 -21.6493
rfingers 7.12502
rthumb 31.769 -48.9013
lclavicle -3.21783e-015 0
lhumerus 25.6329 -1.78182 59.7598
lradius 74.6579
lwrist -23.4186
lhand 14.247 16.2225
lfingers 7.12502
lthumb 39.1424 41.7016
rfemur -15.608 -15.9458 8.09479
rtibia 63.8532
rfoot -33.657 0.919744
rtoes -12.546
lfemur -17.6993 5.23942 -10.4119
ltibia 63.8481
lfoot -34.7741 -3.36014
ltoes -13.3531
114
root 1.36512 16.0438 -3.71616 -5.94818 4.05467 0.028079
lowerback 4.37707 -0.606664 -3.48935
upperback 0.325974 -0.947202 1.4831
thorax -2.03751 -0.436578 3.54594
lowerneck -19.273 -1.91041 -2.51976
upperneck 23.2869 -2.01402 0.427214
head 10.719 -1.09374 0.277631
rclavicle 2.95692e-015 -6.36111e-015
rhumerus 25.8658 3.75101 -43.4279
rradius 69.3564
rwrist 9.58991
rhand 6.45116 -21.6572
rfingers 7.12502
rthumb 31.7531 -48.9124
lclavicle 2.95692e-015 -6.36111e-015
lhumerus 25.6287 -1.80784 59.7606
lradius 74.6476
lwrist -23.4267
lhand 14.2615 16.2134
lfingers 7.12502
lthumb 39.1561 41.6886
rfemur -15.5879 -15.9882 8.09372
rtibia 63.8661
rfoot -33.6675 0.898365
rtoes -12.6097
lfemur -17.7065 5.19489 -10.4049
ltibia 63.8598
lfoot -34.7786 -3.37421
ltoes -13.3228
115
root 1.36436 16.0427 -3.7143 -5.94038 4.06452 0.0541304
lowerback 4.35021 -0.612195 -3.52202
upperback 0.33468 -0.955295 1.48102
thorax -2.01229 -0.441038 3.56213
lowerneck -19.2663 -1.90665 -2.51613
upperneck 23.2635 -2.00985 0.426795
head 10.709 -1.09151 0.277624
rclavicle 7.65321e-015 3.97569e-016
rhumerus 25.8709 3.74742 -43.4173
rradius 69.3649
rwrist 9.57722
rhand 6.42967 -21.6647
rfingers 7.12502
rthumb 31.7326 -48.9239
lclavicle 7.65321e-015 3.97569e-016
lhumerus 25.6397 -1.79032 59.7813
lradius 74.648
lwrist -23.4243
lhand 14.2651 16.1949
lfingers 7.12502
lthumb 39.1594 41.6691
rfemur -15.589 -15.994 8.06129
rtibia 63.879
rfoot -33.6861 0.922992
rtoes -12.5703
lfemur -17.7106 5.18682 -10.4369
ltibia 63.8713
lfoot -34.7949 -3.33326
ltoes -13.3898
116
root 1.36352 16.0417 -3.71382 -5.93857 4.05206 0.0356358
lowerback 4.35481 -0.604814 -3.504
upperback 0.335025 -0.944558 1.48827
thorax -2.01561 -0.435736 3.55893
lowerneck -19.2611 -1.90972 -2.52778
upperneck 23.2482 -2.01407 0.439794
head 10.7028 -1.09281 0.283704
rclavicle -8.07563e-016 5.36719e-015
rhumerus 25.8674 3.73228 -43.3968
rradius 69.3585
rwrist 9.55166
rhand 6.41513 -21.6635
rfingers 7.12502
rthumb 31.7188 -48.9254
lclavicle -8.07563e-016 5.36719e-015
lhumerus 25.6475 -1.79987 59.7884
lradius 74.6514
lwrist -23.4173
lhand 14.2757 16.2309
lfingers 7.12502
lthumb 39.1694 41.7022
rfemur -15.5987 -15.9814 8.08954
rtibia 63.8916
rfoot -33.6924 0.912566
rtoes -12.5565
lfemur -17.7178 5.19373 -10.4104
ltibia 63.8861
lfoot -34.8037 -3.32793
ltoes -13.3959
117
root 1.36187 16.0412 -3.7133 -5.93615 4.05414 -0.00377536
lowerback 4.3513 -0.610613 -3.47066
upperback 0.342138 -0.950313 1.49692
thorax -2.0062 -0.439188 3.54925
lowerneck -19.2772 -1.91202 -2.51757
upperneck 23.2374 -2.02067 0.442218
head 10.7018 -1.09453 0.281792
rclavicle -1.881e-014 2.20651e-014
rhumerus 25.8784 3.71809 -43.4089
rradius 69.3526
rwrist 9.57586
rhand 6.40663 -21.6856
rfingers 7.12502
rthumb 31.7107 -48.9491
lclavicle -1.881e-014 2.20651e-014
lhumerus 25.6661 -1.7889 59.7816
lradius 74.6529
lwrist -23.4142
lhand 14.2678 16.2294
lfingers 7.12502
lthumb 39.162 41.7028
rfemur -15.6074 -15.9706 8.14885
rtibia 63.8985
rfoot -33.6977 0.896165
rtoes -12.5138
lfemur -17.7368 5.19107 -10.3549
ltibia 63.903
lfoot -34.8096 -3.36517
ltoes -13.3604
118
root 1.36112 16.0399 -3.7124 -5.92527 4.04572 -0.0129968
lowerback 4.3505 -0.607775 -3.46058
upperback 0.333642 -0.945951 1.50264
thorax -2.01495 -0.436747 3.54932
lowerneck -19.3077 -1.91619 -2.52816
upperneck 23.2569 -2.02447 0.449923
head 10.7151 -1.09621 0.285447
rclavicle 4.72114e-016 6.75868e-015
rhumerus 25.8704 3.71906 -43.3937
rradius 69.3517
rwrist 9.56275
rhand 6.40206 -21.6683
rfingers 7.12502
rthumb 31.7063 -48.9327
lclavicle 4.72114e-016 6.75868e-015
lhumerus 25.657 -1.78994 59.8001
lradius 74.6657
lwrist -23.4133
lhand 14.2556 16.225
lfingers 7.12502
lthumb 39.1505 41.7018
rfemur -15.6257 -15.9576 8.16825
rtibia 63.9109
rfoot -33.7046 0.897613
rtoes -12.531
lfemur -17.7468 5.19399 -10.3415
ltibia 63.9155
lfoot -34.8047 -3.35715
ltoes -13.3781
119
root 1.36077 16.0391 -3.71126 -5.92866 4.035 -0.0326287
lowerback 4.34729 -0.605654 -3.42994
upperback 0.337692 -0.941465 1.50414
thorax -2.00982 -0.434939 3.53321
lowerneck -19.2905 -1.91376 -2.54786
upperneck 23.2321 -2.02702 0.493721
head 10.7035 -1.09362 0.304321
rclavicle 1.594e-014 -6.36111e-015
rhumerus 25.8631 3.71656 -43.3774
rradius 69.349
rwrist 9.5597
rhand 6.38132 -21.6671
rfingers 7.12502
rthumb 31.6866 -48.9354
lclavicle 1.594e-014 -6.36111e-015
lhumerus 25.6645 -1.79538 59.8005
lradius 74.6644
lwrist -23.4026
lhand 14.2404 16.245
lfingers 7.12502
lthumb 39.1362 41.7259
rfemur -15.6232 -15.9502 8.19079
rtibia 63.9181
rfoot -33.7133 0.902481
rtoes -12.5102
lfemur -17.7409 5.20185 -10.3135
ltibia 63.9239
lfoot -34.8322 -3.37287
ltoes -13.3227
120
root 1.35997 16.038 -3.7095 -5.93035 4.03644 0.0140511
lowerback 4.34316 -0.606987 -3.47783
upperback 0.335496 -0.945682 1.49403
thorax -2.00882 -0.436658 3.54997
lowerneck -19.2906 -1.91266 -2.53789
upperneck 23.2391 -2.02322 0.473496
head 10.7056 -1.09356 0.295928
rclavicle -3.35449e-016 -2.14687e-014
rhumerus 25.8536 3.72723 -43.3767
rradius 69.3454
rwrist 9.58416
rhand 6.3795 -21.6514
rfingers 7.12502
rthumb 31.6849 -48.9201
lclavicle -3.35449e-016 -2.14687e-014
lhumerus 25.6415 -1.78702 59.813
lradius 74.676
lwrist -23.414
lhand 14.2328 16.2232
lfingers 7.12502
lthumb 39.129 41.7062
rfemur -15.6145 -15.9515 8.13497
rtibia 63.9324
rfoot -33.7357 0.895075
rtoes -12.5488
lfemur -17.7243 5.1986 -10.3632
ltibia 63.9211
lfoot -34.8461 -3.34842
ltoes -13.4153
